<svg width="52" height="32" viewBox="0 0 52 32" fill="none" xmlns="http://www.w3.org/2000/svg">
<path d="M10.8333 6.66667H39C40.7239 6.66667 42.3772 7.0881 43.5962 7.83824C44.8152 8.58839 45.5 9.6058 45.5 10.6667V22.6667C45.5 23.7275 44.8152 24.745 43.5962 25.4951C42.3772 26.2452 40.7239 26.6667 39 26.6667H10.8333C9.10943 26.6667 7.45613 26.2452 6.23714 25.4951C5.01816 24.745 4.33334 23.7275 4.33334 22.6667V10.6667C4.33334 9.6058 5.01816 8.58839 6.23714 7.83824C7.45613 7.0881 9.10943 6.66667 10.8333 6.66667ZM10.8333 8C9.68406 8 8.58186 8.28095 7.76921 8.78105C6.95655 9.28115 6.5 9.95942 6.5 10.6667V12H43.3333V10.6667C43.3333 9.95942 42.8768 9.28115 42.0641 8.78105C41.2515 8.28095 40.1493 8 39 8H10.8333ZM6.5 22.6667C6.5 23.3739 6.95655 24.0522 7.76921 24.5523C8.58186 25.0524 9.68406 25.3333 10.8333 25.3333H39C40.1493 25.3333 41.2515 25.0524 42.0641 24.5523C42.8768 24.0522 43.3333 23.3739 43.3333 22.6667V16H6.5V22.6667ZM10.8333 21.3333H19.5V22.6667H10.8333V21.3333ZM23.8333 21.3333H30.3333V22.6667H23.8333V21.3333ZM6.5 13.3333V14.6667H43.3333V13.3333H6.5Z" fill="#604FCE"/>
</svg>
